<svg aria-hidden="true" style="position: absolute; width: 0; height: 0; overflow: hidden;" version="1.1" xmlns="http://www.w3.org/2000/svg" xmlns:xlink="http://www.w3.org/1999/xlink">
<defs>
<symbol id="icon-logo" viewBox="0 0 210 32">
<path fill="#77ac63" style="fill: var(--color1, #77ac63)" d="M25.851 2.057h-3.564c-1.1 0-1.991 0.874-1.991 1.951v3.493c0 1.078 0.892 1.951 1.991 1.951h3.564c1.1 0 1.991-0.874 1.991-1.951v-3.493c0-1.078-0.892-1.951-1.991-1.951z"></path>
<path fill="#77ac63" style="fill: var(--color1, #77ac63)" d="M5.983 22.258h-3.838c-1.184 0-2.144 0.874-2.144 1.951v3.493c0 1.078 0.96 1.951 2.144 1.951h3.838c1.184 0 2.144-0.874 2.144-1.951v-3.493c0-1.078-0.96-1.951-2.144-1.951z"></path>
<path fill="#77ac63" style="fill: var(--color1, #77ac63)" d="M5.555 12.073h-3.564c-1.1 0-1.991 0.874-1.991 1.951v3.493c0 1.078 0.892 1.951 1.991 1.951h3.564c1.1 0 1.991-0.874 1.991-1.951v-3.493c0-1.078-0.892-1.951-1.991-1.951z"></path>
<path fill="#77ac63" style="fill: var(--color1, #77ac63)" d="M15.792 22.203h-3.564c-1.1 0-1.991 0.874-1.991 1.951l-0 3.493c0 1.078 0.892 1.951 1.992 1.951h3.564c1.1 0 1.991-0.874 1.991-1.951v-3.493c0-1.078-0.892-1.951-1.991-1.951z"></path>
<path fill="#77ac63" style="fill: var(--color1, #77ac63)" d="M5.555 1.854h-3.564c-1.1 0-1.991 0.874-1.991 1.951v3.493c0 1.078 0.892 1.951 1.991 1.951h3.564c1.1 0 1.991-0.874 1.991-1.951v-3.493c0-1.078-0.892-1.951-1.991-1.951z"></path>
<path fill="#77ac63" style="fill: var(--color1, #77ac63)" d="M16.067 12.176h-3.564c-1.1 0-1.991 0.874-1.991 1.951v3.493c0 1.078 0.892 1.951 1.991 1.951h3.564c1.1 0 1.991-0.874 1.991-1.951v-3.493c0-1.078-0.891-1.951-1.991-1.951z"></path>
<path fill="#77ac63" style="fill: var(--color1, #77ac63)" d="M26.074 22.203h-3.564c-1.1 0-1.991 0.874-1.991 1.951v3.493c0 1.078 0.892 1.951 1.991 1.951h3.564c1.1 0 1.991-0.874 1.991-1.951v-3.493c0-1.078-0.892-1.951-1.991-1.951z"></path>
<path fill="#77ac63" style="fill: var(--color1, #77ac63)" d="M15.636 1.977h-3.564c-1.1 0-1.991 0.874-1.991 1.951v3.493c0 1.078 0.892 1.951 1.991 1.951h3.564c1.1 0 1.991-0.874 1.991-1.952v-3.492c0-1.078-0.892-1.951-1.991-1.951z"></path>
<path fill="#77ac63" style="fill: var(--color1, #77ac63)" d="M25.817 12.379h-3.564c-1.1 0-1.991 0.874-1.991 1.951v3.493c0 1.078 0.892 1.951 1.991 1.951h3.564c1.1 0 1.991-0.874 1.991-1.951v-3.493c0-1.078-0.892-1.951-1.991-1.951z"></path>
<path fill="#141414" style="fill: var(--color2, #141414)" d="M50.117 24.889l-6.372-17.422h3.41l4.928 14.162 4.953-14.162h3.36l-6.372 17.422h-3.908zM61.471 24.889v-17.422h11.374v2.564h-8.188v4.779h7.442v2.489h-7.442v5.028h8.188v2.564h-11.374zM82.481 25.188c-1.643 0-3.078-0.373-4.306-1.12s-2.182-1.784-2.862-3.111c-0.68-1.344-1.020-2.904-1.020-4.679 0-1.792 0.348-3.368 1.045-4.729 0.713-1.377 1.717-2.447 3.012-3.211 1.311-0.78 2.862-1.17 4.654-1.17 2.041 0 3.733 0.489 5.077 1.468s2.215 2.331 2.613 4.057h-3.559c-0.265-0.813-0.747-1.444-1.444-1.892-0.697-0.465-1.593-0.697-2.688-0.697-1.742 0-3.086 0.556-4.032 1.668-0.946 1.095-1.419 2.605-1.419 4.53s0.465 3.418 1.394 4.48c0.946 1.045 2.223 1.568 3.833 1.568 1.576 0 2.763-0.423 3.559-1.269 0.813-0.863 1.303-1.991 1.468-3.385h-4.405v-2.389h7.616v9.582h-2.937l-0.249-2.29c-0.564 0.83-1.269 1.468-2.116 1.916s-1.925 0.672-3.236 0.672zM100.735 25.188c-1.643 0-3.078-0.373-4.306-1.12s-2.182-1.784-2.862-3.111c-0.68-1.344-1.020-2.904-1.020-4.679 0-1.792 0.348-3.368 1.045-4.729 0.713-1.377 1.717-2.447 3.012-3.211 1.311-0.78 2.862-1.17 4.654-1.17 2.041 0 3.733 0.489 5.077 1.468s2.215 2.331 2.613 4.057h-3.559c-0.265-0.813-0.747-1.444-1.444-1.892-0.697-0.465-1.593-0.697-2.688-0.697-1.742 0-3.086 0.556-4.032 1.668-0.946 1.095-1.419 2.605-1.419 4.53s0.465 3.418 1.394 4.48c0.946 1.045 2.223 1.568 3.833 1.568 1.576 0 2.763-0.423 3.559-1.269 0.813-0.863 1.303-1.991 1.468-3.385h-4.405v-2.389h7.616v9.582h-2.937l-0.249-2.29c-0.564 0.83-1.269 1.468-2.116 1.916s-1.925 0.672-3.236 0.672zM111.374 24.889v-17.422h3.186v17.422h-3.186zM116.941 24.889v-17.422h11.374v2.564h-8.188v4.779h7.442v2.489h-7.442v5.028h8.188v2.564h-11.374zM130.334 24.889v-17.422h6.994c1.809 0 3.186 0.423 4.132 1.269 0.962 0.83 1.444 1.9 1.444 3.211 0 1.095-0.299 1.975-0.896 2.638-0.581 0.647-1.294 1.087-2.14 1.319 0.996 0.199 1.817 0.697 2.464 1.493 0.647 0.78 0.971 1.692 0.971 2.738 0 1.377-0.498 2.514-1.493 3.41s-2.406 1.344-4.231 1.344h-7.243zM133.52 14.784h3.335c0.896 0 1.585-0.207 2.066-0.622s0.722-1.004 0.722-1.767c0-0.73-0.241-1.303-0.722-1.717-0.465-0.431-1.17-0.647-2.116-0.647h-3.285v4.754zM133.52 22.3h3.559c0.946 0 1.676-0.216 2.19-0.647 0.531-0.448 0.796-1.070 0.796-1.867 0-0.813-0.274-1.452-0.821-1.916s-1.286-0.697-2.215-0.697h-3.509v5.127zM153.203 25.188c-1.742 0-3.269-0.382-4.58-1.145-1.294-0.763-2.315-1.817-3.061-3.161-0.73-1.361-1.095-2.929-1.095-4.704s0.365-3.335 1.095-4.679c0.747-1.361 1.767-2.423 3.061-3.186 1.311-0.763 2.837-1.145 4.58-1.145 1.726 0 3.244 0.382 4.555 1.145s2.331 1.825 3.061 3.186c0.73 1.344 1.095 2.904 1.095 4.679s-0.365 3.343-1.095 4.704c-0.73 1.344-1.75 2.398-3.061 3.161s-2.829 1.145-4.555 1.145zM153.203 22.325c1.659 0 2.978-0.548 3.957-1.643 0.996-1.095 1.493-2.597 1.493-4.505s-0.498-3.41-1.493-4.505c-0.979-1.095-2.298-1.643-3.957-1.643s-2.987 0.548-3.982 1.643-1.493 2.597-1.493 4.505c0 1.908 0.498 3.41 1.493 4.505s2.323 1.643 3.982 1.643zM171.895 25.188c-1.742 0-3.269-0.382-4.58-1.145-1.294-0.763-2.315-1.817-3.061-3.161-0.73-1.361-1.095-2.929-1.095-4.704s0.365-3.335 1.095-4.679c0.747-1.361 1.767-2.423 3.061-3.186 1.311-0.763 2.837-1.145 4.58-1.145 1.726 0 3.244 0.382 4.555 1.145s2.331 1.825 3.061 3.186c0.731 1.344 1.095 2.904 1.095 4.679s-0.364 3.343-1.095 4.704c-0.731 1.344-1.75 2.398-3.061 3.161s-2.829 1.145-4.555 1.145zM171.895 22.325c1.659 0 2.978-0.548 3.957-1.643 0.996-1.095 1.493-2.597 1.493-4.505s-0.498-3.41-1.493-4.505c-0.979-1.095-2.298-1.643-3.957-1.643s-2.987 0.548-3.982 1.643-1.493 2.597-1.493 4.505c0 1.908 0.498 3.41 1.493 4.505s2.323 1.643 3.982 1.643zM188.372 25.188c-1.276 0-2.405-0.216-3.385-0.647-0.978-0.448-1.749-1.079-2.315-1.892-0.564-0.83-0.853-1.833-0.871-3.012h3.36c0.034 0.813 0.324 1.502 0.871 2.066 0.565 0.548 1.337 0.821 2.315 0.821 0.846 0 1.518-0.199 2.016-0.597 0.498-0.415 0.747-0.962 0.747-1.643 0-0.713-0.224-1.269-0.672-1.668-0.43-0.398-1.012-0.722-1.742-0.971-0.729-0.249-1.509-0.514-2.34-0.796-1.344-0.465-2.372-1.062-3.086-1.792-0.697-0.73-1.045-1.701-1.045-2.912-0.016-1.029 0.224-1.908 0.722-2.638 0.516-0.747 1.212-1.319 2.091-1.717 0.88-0.415 1.892-0.622 3.036-0.622 1.163 0 2.183 0.207 3.061 0.622 0.896 0.415 1.593 0.996 2.091 1.742 0.516 0.747 0.789 1.634 0.821 2.663h-3.41c-0.016-0.614-0.256-1.153-0.722-1.618-0.448-0.481-1.077-0.722-1.892-0.722-0.697-0.017-1.285 0.158-1.767 0.523-0.464 0.348-0.697 0.863-0.697 1.543 0 0.581 0.183 1.045 0.548 1.394 0.366 0.332 0.864 0.614 1.493 0.846 0.631 0.232 1.353 0.481 2.165 0.747 0.864 0.299 1.652 0.647 2.364 1.045 0.715 0.398 1.287 0.929 1.717 1.593 0.432 0.647 0.647 1.485 0.647 2.514 0 0.913-0.231 1.759-0.697 2.539-0.464 0.78-1.152 1.41-2.066 1.892-0.912 0.465-2.032 0.697-3.36 0.697zM200.117 24.889v-14.859h-5.077v-2.564h13.365v2.564h-5.102v14.859h-3.186z"></path>
</symbol>
<symbol id="icon-cart" viewBox="0 0 32 32">
<path d="M12 29c0 1.657-1.343 3-3 3s-3-1.343-3-3c0-1.657 1.343-3 3-3s3 1.343 3 3z"></path>
<path d="M32 29c0 1.657-1.343 3-3 3s-3-1.343-3-3c0-1.657 1.343-3 3-3s3 1.343 3 3z"></path>
<path d="M32 16v-12h-24c0-1.105-0.895-2-2-2h-6v2h4l1.502 12.877c-0.915 0.733-1.502 1.859-1.502 3.123 0 2.209 1.791 4 4 4h24v-2h-24c-1.105 0-2-0.895-2-2 0-0.007 0-0.014 0-0.020l26-3.98z"></path>
</symbol>
<symbol id="icon-arrow" viewBox="0 0 32 32">
<path d="M27.414 19.414l-10 10c-0.781 0.781-2.047 0.781-2.828 0l-10-10c-0.781-0.781-0.781-2.047 0-2.828s2.047-0.781 2.828 0l6.586 6.586v-19.172c0-1.105 0.895-2 2-2s2 0.895 2 2v19.172l6.586-6.586c0.39-0.39 0.902-0.586 1.414-0.586s1.024 0.195 1.414 0.586c0.781 0.781 0.781 2.047 0 2.828z"></path>
</symbol>
</defs>
</svg>
